<svg width="25" height="24" viewBox="0 0 25 24" fill="none" xmlns="http://www.w3.org/2000/svg">
<path opacity="0.95" d="M17.335 6.5C17.335 9.1703 15.1703 11.335 12.5 11.335C9.8297 11.335 7.665 9.1703 7.665 6.5C7.665 3.8297 9.8297 1.665 12.5 1.665C15.1703 1.665 17.335 3.8297 17.335 6.5Z" stroke="#333333" stroke-width="1.33"/>
<mask id="mask0_2395_225" style="mask-type:alpha" maskUnits="userSpaceOnUse" x="-2" y="11" width="28" height="12">
<path d="M25.4615 11H-2V23H25.4615V11Z" fill="white"/>
</mask>
<g mask="url(#mask0_2395_225)">
<g opacity="0.95">
<mask id="path-3-inside-1_2395_225" fill="white">
<path fill-rule="evenodd" clip-rule="evenodd" d="M0 25L2.98531 14H22.1065L25 25"/>
</mask>
<path d="M-1.28357 24.6516C-1.47596 25.3605 -1.05725 26.0912 -0.348351 26.2836C0.360545 26.476 1.09118 26.0572 1.28357 25.3484L-1.28357 24.6516ZM2.98531 14V12.67H1.96815L1.70174 13.6516L2.98531 14ZM22.1065 14L23.3927 13.6617L23.1319 12.67H22.1065V14ZM23.7138 25.3383C23.9006 26.0487 24.628 26.4731 25.3383 26.2862C26.0487 26.0994 26.4731 25.372 26.2862 24.6617L23.7138 25.3383ZM1.28357 25.3484L4.26888 14.3484L1.70174 13.6516L-1.28357 24.6516L1.28357 25.3484ZM2.98531 15.33H22.1065V12.67H2.98531V15.33ZM20.8202 14.3383L23.7138 25.3383L26.2862 24.6617L23.3927 13.6617L20.8202 14.3383Z" fill="#333333" mask="url(#path-3-inside-1_2395_225)"/>
</g>
</g>
</svg>
