<svg width="24" height="24" viewBox="0 0 24 24" fill="none" xmlns="http://www.w3.org/2000/svg">
<rect x="1.665" y="1.665" width="20.67" height="20.67" stroke="#333333" stroke-width="1.33"/>
<path d="M8.0601 6.2131C8.14741 6.37471 8.31631 6.47543 8.5 6.47543C8.68369 6.47543 8.85259 6.37471 8.9399 6.2131C9.16874 5.78954 9.62115 5.5 10.1406 5.5C10.8944 5.5 11.5 6.10693 11.5 6.84167C11.5 7.77802 11.0057 8.5789 10.3337 9.23481C9.7178 9.8359 8.99313 10.274 8.5 10.5322C8.00687 10.274 7.2822 9.8359 6.66633 9.23481C5.9943 8.5789 5.5 7.77802 5.5 6.84167C5.5 6.10701 6.10593 5.5 6.85938 5.5C7.37922 5.5 7.83123 5.78948 8.0601 6.2131Z" fill="#444444" stroke="#444444" stroke-linecap="round" stroke-linejoin="round"/>
<path fill-rule="evenodd" clip-rule="evenodd" d="M19 15.33H5V14H19V15.33Z" fill="#333333"/>
<path fill-rule="evenodd" clip-rule="evenodd" d="M16 18.66H5V17.33H16V18.66Z" fill="#333333"/>
</svg>
